<mxfile host="app.diagrams.net" modified="2023-12-21T10:29:07.021Z" agent="Mozilla/5.0 (Windows NT 10.0; Win64; x64) AppleWebKit/537.36 (KHTML, like Gecko) Chrome/120.0.0.0 Safari/537.36 Edg/120.0.0.0" etag="3bBwH0CDGb2SLA1lgUWg" version="22.1.11" type="device">
  <diagram name="Page-1" id="NA00ltkQt7KQ1ODyW51z">
    <mxGraphModel dx="1374" dy="765" grid="1" gridSize="10" guides="1" tooltips="1" connect="1" arrows="1" fold="1" page="1" pageScale="1" pageWidth="850" pageHeight="1100" math="0" shadow="0">
      <root>
        <mxCell id="0" />
        <mxCell id="1" parent="0" />
        <mxCell id="0_vyEXYit7AstUDox_LG-2" value="" style="shape=document;whiteSpace=wrap;html=1;boundedLbl=1;size=0.09195402298850575;fillColor=#d5e8d4;strokeColor=#82b366;" parent="1" vertex="1">
          <mxGeometry x="30" y="50" width="560" height="490" as="geometry" />
        </mxCell>
        <mxCell id="0_vyEXYit7AstUDox_LG-4" value="&lt;p style=&quot;language:de;margin-top:6.0pt;margin-bottom:0pt;margin-left:0in;&lt;br/&gt;text-indent:0in;text-align:left;direction:ltr;unicode-bidi:embed;mso-line-break-override:&lt;br/&gt;none;word-break:normal;punctuation-wrap:hanging&quot;&gt;terminalsAndIcons.xml&lt;/p&gt;" style="text;html=1;strokeColor=none;fillColor=none;align=center;verticalAlign=middle;whiteSpace=wrap;rounded=0;fontStyle=1" parent="1" vertex="1">
          <mxGeometry x="73" y="45" width="60" height="30" as="geometry" />
        </mxCell>
        <mxCell id="0_vyEXYit7AstUDox_LG-14" style="edgeStyle=orthogonalEdgeStyle;rounded=0;orthogonalLoop=1;jettySize=auto;html=1;exitX=1;exitY=0.75;exitDx=0;exitDy=0;startArrow=diamondThin;startFill=1;endArrow=none;endFill=0;" parent="1" edge="1">
          <mxGeometry relative="1" as="geometry">
            <mxPoint x="197" y="177.5" as="sourcePoint" />
            <mxPoint x="330" y="108" as="targetPoint" />
            <Array as="points">
              <mxPoint x="230" y="178" />
              <mxPoint x="230" y="130" />
              <mxPoint x="330" y="130" />
            </Array>
          </mxGeometry>
        </mxCell>
        <mxCell id="0_vyEXYit7AstUDox_LG-27" style="edgeStyle=orthogonalEdgeStyle;rounded=0;orthogonalLoop=1;jettySize=auto;html=1;exitX=0.841;exitY=0.999;exitDx=0;exitDy=0;strokeWidth=1;fontSize=1;startArrow=diamondThin;startFill=1;endArrow=none;endFill=0;exitPerimeter=0;entryX=0.59;entryY=-0.019;entryDx=0;entryDy=0;entryPerimeter=0;" parent="1" source="0_vyEXYit7AstUDox_LG-6" target="0_vyEXYit7AstUDox_LG-19" edge="1">
          <mxGeometry relative="1" as="geometry" />
        </mxCell>
        <mxCell id="0_vyEXYit7AstUDox_LG-6" value="&lt;p style=&quot;margin-top: 0pt; margin-bottom: 0pt; margin-left: 0in; text-indent: 0in; direction: ltr; unicode-bidi: embed; word-break: normal;&quot;&gt;„&lt;b&gt;&lt;span&gt;NetworkX&lt;/span&gt;&lt;span&gt;“&lt;/span&gt;&lt;span&gt;::Terminal&lt;/span&gt;&lt;/b&gt;&lt;/p&gt;&lt;p style=&quot;margin-top: 0pt; margin-bottom: 0pt; margin-left: 0in; text-indent: 0in; direction: ltr; unicode-bidi: embed; word-break: normal;&quot;&gt;&lt;span&gt;&amp;nbsp; Name =&amp;nbsp;&lt;/span&gt;&lt;span&gt;&amp;lt;network name&lt;/span&gt;&lt;span&gt;&amp;gt;&lt;/span&gt;&lt;/p&gt;" style="rounded=0;whiteSpace=wrap;html=1;align=left;verticalAlign=top;" parent="1" vertex="1">
          <mxGeometry x="37" y="142" width="160" height="70" as="geometry" />
        </mxCell>
        <mxCell id="0_vyEXYit7AstUDox_LG-13" value="&lt;p style=&quot;margin-top: 0pt; margin-bottom: 0pt; margin-left: 0in; text-indent: 0in; direction: ltr; unicode-bidi: embed; word-break: normal;&quot;&gt;&lt;b&gt;TerminalMemberVariable&lt;/b&gt;&lt;/p&gt;&lt;p style=&quot;margin-top: 0pt; margin-bottom: 0pt; margin-left: 0in; text-indent: 0in; direction: ltr; unicode-bidi: embed; word-break: normal;&quot;&gt;&amp;nbsp; variableName = &amp;lt;FmuVariable&amp;gt;&lt;/p&gt;&lt;p style=&quot;margin-top: 0pt; margin-bottom: 0pt; margin-left: 0in; text-indent: 0in; direction: ltr; unicode-bidi: embed; word-break: normal;&quot;&gt;&amp;nbsp; memberName = Tx_Data, Rx_Data,&amp;nbsp; &amp;nbsp; &amp;nbsp; &amp;nbsp; &amp;nbsp; &amp;nbsp; &amp;nbsp; &amp;nbsp; &amp;nbsp; &amp;nbsp; &amp;nbsp; &amp;nbsp; &amp;nbsp; &amp;nbsp; &amp;nbsp; &amp;nbsp; &amp;nbsp; &amp;nbsp; &amp;nbsp; &amp;nbsp; &amp;nbsp;Tx_Clock, Rx_Clock&amp;nbsp;&amp;nbsp;&lt;/p&gt;&lt;p style=&quot;margin-top: 0pt; margin-bottom: 0pt; margin-left: 0in; text-indent: 0in; direction: ltr; unicode-bidi: embed; word-break: normal;&quot;&gt;&amp;nbsp; variableKind = signal&lt;/p&gt;&lt;div&gt;&lt;br&gt;&lt;/div&gt;" style="rounded=0;whiteSpace=wrap;html=1;align=left;verticalAlign=top;" parent="1" vertex="1">
          <mxGeometry x="330" y="90" width="239.5" height="90" as="geometry" />
        </mxCell>
        <mxCell id="0_vyEXYit7AstUDox_LG-16" value="" style="endArrow=none;html=1;rounded=0;strokeWidth=3;dashed=1;exitX=0.003;exitY=0.378;exitDx=0;exitDy=0;exitPerimeter=0;entryX=0.999;entryY=0.413;entryDx=0;entryDy=0;entryPerimeter=0;" parent="1" target="0_vyEXYit7AstUDox_LG-2" edge="1">
          <mxGeometry relative="1" as="geometry">
            <mxPoint x="31.769999999999754" y="252.2199999999999" as="sourcePoint" />
            <mxPoint x="590" y="260" as="targetPoint" />
          </mxGeometry>
        </mxCell>
        <mxCell id="0_vyEXYit7AstUDox_LG-17" value="Low Cut" style="text;html=1;strokeColor=none;fillColor=none;align=right;verticalAlign=middle;whiteSpace=wrap;rounded=0;fontStyle=1" parent="1" vertex="1">
          <mxGeometry x="525" y="226" width="60" height="30" as="geometry" />
        </mxCell>
        <mxCell id="0_vyEXYit7AstUDox_LG-18" value="High Cut" style="text;html=1;strokeColor=none;fillColor=none;align=right;verticalAlign=middle;whiteSpace=wrap;rounded=0;fontStyle=1" parent="1" vertex="1">
          <mxGeometry x="526" y="250" width="60" height="30" as="geometry" />
        </mxCell>
        <mxCell id="0_vyEXYit7AstUDox_LG-29" style="edgeStyle=orthogonalEdgeStyle;rounded=0;orthogonalLoop=1;jettySize=auto;html=1;exitX=0.586;exitY=0.989;exitDx=0;exitDy=0;strokeWidth=1;fontSize=1;startArrow=diamondThin;startFill=1;endArrow=none;endFill=0;exitPerimeter=0;" parent="1" source="0_vyEXYit7AstUDox_LG-19" target="0_vyEXYit7AstUDox_LG-20" edge="1">
          <mxGeometry relative="1" as="geometry" />
        </mxCell>
        <mxCell id="0_vyEXYit7AstUDox_LG-31" style="edgeStyle=orthogonalEdgeStyle;rounded=0;orthogonalLoop=1;jettySize=auto;html=1;exitX=1;exitY=0.5;exitDx=0;exitDy=0;entryX=0;entryY=0.5;entryDx=0;entryDy=0;strokeWidth=1;fontSize=1;startArrow=diamondThin;startFill=1;endArrow=none;endFill=0;" parent="1" target="0_vyEXYit7AstUDox_LG-21" edge="1">
          <mxGeometry relative="1" as="geometry">
            <mxPoint x="214" y="325" as="sourcePoint" />
          </mxGeometry>
        </mxCell>
        <mxCell id="0_vyEXYit7AstUDox_LG-19" value="&lt;p style=&quot;margin-top: 0pt; margin-bottom: 0pt; margin-left: 0in; text-indent: 0in; direction: ltr; unicode-bidi: embed; word-break: normal;&quot;&gt;&lt;b&gt;„FrameX“::Terminal&lt;/b&gt;&lt;/p&gt;&lt;p style=&quot;margin-top: 0pt; margin-bottom: 0pt; margin-left: 0in; text-indent: 0in; direction: ltr; unicode-bidi: embed; word-break: normal;&quot;&gt;&amp;nbsp; Name = &amp;lt;frame name&amp;gt;&lt;/p&gt;&lt;div&gt;&lt;br&gt;&lt;/div&gt;" style="rounded=0;whiteSpace=wrap;html=1;align=left;verticalAlign=top;" parent="1" vertex="1">
          <mxGeometry x="77" y="290" width="160" height="70" as="geometry" />
        </mxCell>
        <mxCell id="0_vyEXYit7AstUDox_LG-32" style="edgeStyle=orthogonalEdgeStyle;rounded=0;orthogonalLoop=1;jettySize=auto;html=1;exitX=1;exitY=0.5;exitDx=0;exitDy=0;entryX=0;entryY=0.5;entryDx=0;entryDy=0;strokeWidth=1;fontSize=1;startArrow=diamondThin;startFill=1;endArrow=none;endFill=0;" parent="1" target="0_vyEXYit7AstUDox_LG-22" edge="1">
          <mxGeometry relative="1" as="geometry">
            <mxPoint x="228" y="424" as="sourcePoint" />
          </mxGeometry>
        </mxCell>
        <mxCell id="0_vyEXYit7AstUDox_LG-20" value="&lt;p style=&quot;margin-top: 0pt; margin-bottom: 0pt; margin-left: 0in; text-indent: 0in; direction: ltr; unicode-bidi: embed; word-break: normal;&quot;&gt;&lt;b&gt;„PduX“::Terminal&lt;/b&gt;&lt;/p&gt;&lt;p style=&quot;margin-top: 0pt; margin-bottom: 0pt; margin-left: 0in; text-indent: 0in; direction: ltr; unicode-bidi: embed; word-break: normal;&quot;&gt;&amp;nbsp; Name = &amp;lt;PDU name&amp;gt;&lt;/p&gt;" style="rounded=0;whiteSpace=wrap;html=1;align=left;verticalAlign=top;" parent="1" vertex="1">
          <mxGeometry x="91" y="389" width="160" height="70" as="geometry" />
        </mxCell>
        <mxCell id="0_vyEXYit7AstUDox_LG-21" value="&lt;p style=&quot;margin-top: 0pt; margin-bottom: 0pt; margin-left: 0in; text-indent: 0in; direction: ltr; unicode-bidi: embed; word-break: normal;&quot;&gt;&lt;b&gt;TerminalMemberVariable&lt;/b&gt;&lt;/p&gt;&lt;p style=&quot;margin-top: 0pt; margin-bottom: 0pt; margin-left: 0in; text-indent: 0in; direction: ltr; unicode-bidi: embed; word-break: normal;&quot;&gt;&amp;nbsp; variableName = &amp;lt;FmuClock&amp;gt;&lt;/p&gt;&lt;p style=&quot;margin-top: 0pt; margin-bottom: 0pt; margin-left: 0in; text-indent: 0in; direction: ltr; unicode-bidi: embed; word-break: normal;&quot;&gt;&amp;nbsp; memberName = &amp;lt;FrameName&amp;gt;&amp;nbsp;&amp;nbsp;&lt;/p&gt;&lt;p style=&quot;margin-top: 0pt; margin-bottom: 0pt; margin-left: 0in; text-indent: 0in; direction: ltr; unicode-bidi: embed; word-break: normal;&quot;&gt;&amp;nbsp; variableKind = signal&lt;/p&gt;" style="rounded=0;whiteSpace=wrap;html=1;align=left;verticalAlign=top;" parent="1" vertex="1">
          <mxGeometry x="379" y="290" width="191" height="70" as="geometry" />
        </mxCell>
        <mxCell id="0_vyEXYit7AstUDox_LG-22" value="&lt;p style=&quot;margin-top: 0pt; margin-bottom: 0pt; margin-left: 0in; text-indent: 0in; direction: ltr; unicode-bidi: embed; word-break: normal;&quot;&gt;&lt;b&gt;TerminalMemberVariable&lt;/b&gt;&lt;/p&gt;&lt;p style=&quot;margin-top: 0pt; margin-bottom: 0pt; margin-left: 0in; text-indent: 0in; direction: ltr; unicode-bidi: embed; word-break: normal;&quot;&gt;&amp;nbsp; variableName = &amp;lt;FmuVariable&amp;gt;&lt;/p&gt;&lt;p style=&quot;margin-top: 0pt; margin-bottom: 0pt; margin-left: 0in; text-indent: 0in; direction: ltr; unicode-bidi: embed; word-break: normal;&quot;&gt;&amp;nbsp; memberName = &amp;lt;SignalName&amp;gt;&amp;nbsp;&amp;nbsp;&lt;/p&gt;&lt;p style=&quot;margin-top: 0pt; margin-bottom: 0pt; margin-left: 0in; text-indent: 0in; direction: ltr; unicode-bidi: embed; word-break: normal;&quot;&gt;&amp;nbsp; variableKind = signal&lt;/p&gt;" style="rounded=0;whiteSpace=wrap;html=1;align=left;verticalAlign=top;" parent="1" vertex="1">
          <mxGeometry x="381.5" y="389" width="188.5" height="70" as="geometry" />
        </mxCell>
        <mxCell id="0_vyEXYit7AstUDox_LG-33" value="Text" style="text;html=1;strokeColor=none;fillColor=none;align=center;verticalAlign=middle;whiteSpace=wrap;rounded=0;fontSize=1;" parent="1" vertex="1">
          <mxGeometry x="217" y="270" width="60" height="30" as="geometry" />
        </mxCell>
        <mxCell id="0_vyEXYit7AstUDox_LG-34" value="Bus Terminal" style="text;html=1;strokeColor=none;fillColor=none;align=left;verticalAlign=middle;whiteSpace=wrap;rounded=0;fontSize=10;" parent="1" vertex="1">
          <mxGeometry x="37" y="120" width="90" height="30" as="geometry" />
        </mxCell>
        <mxCell id="0_vyEXYit7AstUDox_LG-35" value="Frame Terminal" style="text;html=1;strokeColor=none;fillColor=none;align=left;verticalAlign=middle;whiteSpace=wrap;rounded=0;fontSize=10;" parent="1" vertex="1">
          <mxGeometry x="77" y="268" width="90" height="30" as="geometry" />
        </mxCell>
        <mxCell id="0_vyEXYit7AstUDox_LG-37" value="PDU Terminal" style="text;html=1;strokeColor=none;fillColor=none;align=left;verticalAlign=middle;whiteSpace=wrap;rounded=0;fontSize=10;" parent="1" vertex="1">
          <mxGeometry x="90" y="367" width="90" height="30" as="geometry" />
        </mxCell>
        <mxCell id="0_vyEXYit7AstUDox_LG-39" value="*" style="text;html=1;strokeColor=none;fillColor=none;align=center;verticalAlign=middle;whiteSpace=wrap;rounded=0;fontSize=10;" parent="1" vertex="1">
          <mxGeometry x="145" y="372" width="60" height="30" as="geometry" />
        </mxCell>
        <mxCell id="0_vyEXYit7AstUDox_LG-40" value="*" style="text;html=1;strokeColor=none;fillColor=none;align=center;verticalAlign=middle;whiteSpace=wrap;rounded=0;fontSize=10;" parent="1" vertex="1">
          <mxGeometry x="145" y="273" width="60" height="30" as="geometry" />
        </mxCell>
        <mxCell id="0_vyEXYit7AstUDox_LG-41" value="&lt;p style=&quot;margin-top: 0pt; margin-bottom: 0pt; margin-left: 0in; text-indent: 0in; direction: ltr; unicode-bidi: embed; word-break: normal;&quot;&gt;One&lt;span style=&quot;font-family: &amp;quot;Segoe UI&amp;quot;; color: rgb(38, 38, 38);&quot;&gt; &lt;/span&gt;&lt;span style=&quot;font-family: &amp;quot;Segoe UI&amp;quot;; color: rgb(38, 38, 38);&quot;&gt;clock&lt;/span&gt;&lt;span style=&quot;font-family: &amp;quot;Segoe UI&amp;quot;; color: rgb(38, 38, 38);&quot;&gt; per frame&lt;/span&gt;&lt;/p&gt;" style="text;html=1;strokeColor=none;fillColor=none;align=right;verticalAlign=middle;whiteSpace=wrap;rounded=0;fontSize=10;" parent="1" vertex="1">
          <mxGeometry x="247" y="302" width="130" height="30" as="geometry" />
        </mxCell>
        <mxCell id="0_vyEXYit7AstUDox_LG-43" value="&lt;p style=&quot;margin-top: 0pt; margin-bottom: 0pt; margin-left: 0in; text-indent: 0in; text-align: left; direction: ltr; unicode-bidi: embed; word-break: normal;&quot;&gt;One&lt;span style=&quot;font-family: &amp;quot;Segoe UI&amp;quot;; color: rgb(38, 38, 38);&quot;&gt; per &lt;/span&gt;&lt;span style=&quot;font-family: &amp;quot;Segoe UI&amp;quot;; color: rgb(38, 38, 38);&quot;&gt;signal&lt;/span&gt;&lt;span style=&quot;font-family: &amp;quot;Segoe UI&amp;quot;; color: rgb(38, 38, 38);&quot;&gt; &lt;/span&gt;&lt;span style=&quot;font-family: &amp;quot;Segoe UI&amp;quot;; color: rgb(38, 38, 38);&quot;&gt;of&lt;/span&gt;&lt;span style=&quot;font-family: &amp;quot;Segoe UI&amp;quot;; color: rgb(38, 38, 38);&quot;&gt; PDU&lt;/span&gt;&lt;/p&gt;" style="text;html=1;strokeColor=none;fillColor=none;align=right;verticalAlign=middle;whiteSpace=wrap;rounded=0;fontSize=10;" parent="1" vertex="1">
          <mxGeometry x="249" y="401" width="130" height="30" as="geometry" />
        </mxCell>
        <mxCell id="0_vyEXYit7AstUDox_LG-45" value="*" style="text;html=1;strokeColor=none;fillColor=none;align=center;verticalAlign=middle;whiteSpace=wrap;rounded=0;fontSize=10;" parent="1" vertex="1">
          <mxGeometry x="348" y="416" width="60" height="30" as="geometry" />
        </mxCell>
        <mxCell id="0_vyEXYit7AstUDox_LG-46" value="&lt;p style=&quot;margin-top: 0pt; margin-bottom: 0pt; margin-left: 0in; text-indent: 0in; direction: ltr; unicode-bidi: embed; word-break: normal; font-size: 8px;&quot;&gt;Multiple &lt;span style=&quot;font-size: 8px; font-family: &amp;quot;Segoe UI&amp;quot;;&quot;&gt;TerminalMemberVariables&lt;/span&gt;&lt;span style=&quot;font-family: &amp;quot;Segoe UI&amp;quot;; color: rgb(38, 38, 38); font-size: 8px;&quot;&gt; in &lt;/span&gt;&lt;span style=&quot;font-size: 8px; font-family: &amp;quot;Segoe UI&amp;quot;;&quot;&gt;case&lt;/span&gt;&lt;span style=&quot;font-size: 8px; color: rgb(38, 38, 38);&quot;&gt; &lt;/span&gt;&lt;span style=&quot;font-size: 8px; font-family: &amp;quot;Segoe UI&amp;quot;;&quot;&gt;of&lt;/span&gt;&lt;span style=&quot;font-size: 8px; color: rgb(38, 38, 38);&quot;&gt; &lt;/span&gt;&lt;span style=&quot;font-size: 8px; font-family: &amp;quot;Segoe UI&amp;quot;;&quot;&gt;multiplexed&lt;/span&gt;&lt;span style=&quot;font-size: 8px; color: rgb(38, 38, 38);&quot;&gt; &lt;/span&gt;&lt;span style=&quot;font-size: 8px; font-family: &amp;quot;Segoe UI&amp;quot;;&quot;&gt;signals&lt;/span&gt;&lt;/p&gt;" style="text;html=1;strokeColor=none;fillColor=none;align=left;verticalAlign=middle;whiteSpace=wrap;rounded=0;fontSize=8;" parent="1" vertex="1">
          <mxGeometry x="381.5" y="459" width="170" height="30" as="geometry" />
        </mxCell>
        <mxCell id="0_vyEXYit7AstUDox_LG-47" value="&lt;p style=&quot;margin-top: 0pt; margin-bottom: 0pt; margin-left: 0in; text-indent: 0in; direction: ltr; unicode-bidi: embed; word-break: normal;&quot;&gt;Rx/Tx data + clock&lt;/p&gt;" style="text;html=1;strokeColor=none;fillColor=none;align=right;verticalAlign=middle;whiteSpace=wrap;rounded=0;fontSize=10;" parent="1" vertex="1">
          <mxGeometry x="198.5" y="107" width="130" height="30" as="geometry" />
        </mxCell>
        <mxCell id="0_vyEXYit7AstUDox_LG-48" value="4" style="text;html=1;strokeColor=none;fillColor=none;align=center;verticalAlign=middle;whiteSpace=wrap;rounded=0;fontSize=10;" parent="1" vertex="1">
          <mxGeometry x="292.5" y="124" width="60" height="30" as="geometry" />
        </mxCell>
      </root>
    </mxGraphModel>
  </diagram>
</mxfile>
